FFmpeg version SVN-r25716, Copyright (c) 2000-2010 the FFmpeg developers  built on Nov 10 2010 12:23:18 with gcc 4.1.2 20080704 (Red Hat 4.1.2-48)  configuration: --enable-libmp3lame --enable-shared --disable-mmx --arch=x86_64  libavutil     50.33. 0 / 50.33. 0  libavcore      0.12. 1 /  0.12. 1  libavcodec    52.94. 4 / 52.94. 4  libavformat   52.84. 0 / 52.84. 0  libavdevice   52. 2. 2 / 52. 2. 2  libavfilter    1.59. 0 /  1.59. 0  libswscale     0.12. 0 /  0.12. 0Input #0, avi, from '/RAID10/data/converted_video_files/11973.avi':  Duration: 00:00:16.11, start: 0.000000, bitrate: 3702 kb/s    Stream #0.0: Video: mpeg4, yuv420p, 720x480 [PAR 1:1 DAR 3:2], 25 tbr, 29.97 tbn, 25 tbc    Stream #0.1: Audio: pcm_s16le, 48000 Hz, 2 channels, s16, 1536 kb/s[buffer @ 0x1461c6b0] w:720 h:480 pixfmt:yuv420pOutput #0, flv, to '/RAID10/data/converted_video_files/11973.flv':  Metadata:    encoder         : Lavf52.84.0    Stream #0.0: Video: flv, yuv420p, 720x480 [PAR 1:1 DAR 3:2], q=2-31, 600 kb/s, 1k tbn, 24 tbc    Stream #0.1: Audio: libmp3lame, 22050 Hz, 2 channels, s16, 96 kb/sStream mapping:  Stream #0.0 -> #0.0  Stream #0.1 -> #0.1Press [q] to stop encodingframe=   29 fps=  0 q=3.8 size=     198kB time=1.25 bitrate=1298.3kbits/s dup=0 drop=7    frame=   71 fps= 65 q=3.8 size=     375kB time=3.00 bitrate=1025.1kbits/s dup=0 drop=17    frame=  104 fps= 66 q=4.1 size=     516kB time=4.37 bitrate= 967.2kbits/s dup=0 drop=26    frame=  132 fps= 63 q=4.6 size=     625kB time=5.54 bitrate= 923.3kbits/s dup=0 drop=33    frame=  164 fps= 63 q=5.6 size=     755kB time=6.87 bitrate= 900.1kbits/s dup=0 drop=41    frame=  205 fps= 66 q=3.7 size=     916kB time=8.58 bitrate= 874.4kbits/s dup=0 drop=51    frame=  233 fps= 64 q=4.4 size=    1017kB time=9.75 bitrate= 854.4kbits/s dup=0 drop=58    frame=  261 fps= 63 q=4.5 size=    1113kB time=10.92 bitrate= 835.4kbits/s dup=0 drop=65    frame=  288 fps= 62 q=4.5 size=    1204kB time=12.04 bitrate= 818.8kbits/s dup=0 drop=71    frame=  308 fps= 60 q=4.4 size=    1280kB time=12.87 bitrate= 814.2kbits/s dup=0 drop=76    frame=  329 fps= 58 q=4.5 size=    1358kB time=13.75 bitrate= 809.2kbits/s dup=0 drop=82    frame=  355 fps= 57 q=4.5 size=    1450kB time=14.83 bitrate= 800.5kbits/s dup=0 drop=88    frame=  375 fps= 56 q=4.5 size=    1527kB time=15.67 bitrate= 798.6kbits/s dup=0 drop=93    frame=  387 fps= 56 q=4.2 Lsize=    1570kB time=16.17 bitrate= 795.4kbits/s dup=0 drop=96    video:1364kB audio:189kB global headers:0kB muxing overhead 1.031754%